<svg width="41" height="30" viewBox="0 0 41 30" fill="none" xmlns="http://www.w3.org/2000/svg">
<path d="M15.3157 0L0 15.0003L15.3157 30L20.5396 24.7207L16.5338 20.7972C16.3602 20.6273 16.2414 20.4098 16.1925 20.1724C16.1436 19.9351 16.1668 19.6886 16.259 19.4644C16.3513 19.2402 16.5086 19.0483 16.7108 18.9133C16.9129 18.7783 17.1509 18.7062 17.3944 18.7062H41V11.2961H17.3932C17.1498 11.2961 16.9118 11.224 16.7097 11.089C16.5075 10.954 16.3503 10.7622 16.258 10.538C16.1657 10.3138 16.1426 10.0673 16.1915 9.83002C16.2405 9.5927 16.3593 9.37522 16.5328 9.20529L20.5396 5.28162L15.3157 0Z" fill="#2DCCD3"/>
</svg>
