<svg width="200" height="19" viewBox="0 0 200 19" fill="none" xmlns="http://www.w3.org/2000/svg">
<path d="M71.9767 0.000273566C66.2896 0.000273566 62.0694 3.64249 62.0694 9.42409C62.0694 15.1293 66.2896 19 71.9767 19C77.6894 19 81.9094 15.1293 81.9094 9.42409C81.9094 3.64249 77.6894 0.000273566 71.9767 0.000273566ZM71.9767 3.92213C75.0647 3.92213 77.2006 6.26586 77.2006 9.42409C77.2006 12.6842 75.0389 15.0267 71.9767 15.0267C68.9144 15.0267 66.7782 12.6842 66.7782 9.42409C66.7782 6.26586 68.8887 3.92213 71.9767 3.92213Z" fill="white"/>
<path d="M43.0001 0.483939V18.5163H49.794C54.812 18.5163 60.0108 15.7912 60.0108 9.44925C60.0108 2.62341 54.7607 0.483939 49.5883 0.483939H43.0001ZM47.2975 4.20225H49.4855C52.522 4.20225 55.4303 5.39957 55.4303 9.44925C55.4303 13.4734 52.5221 14.7466 49.3827 14.7466H47.2975V4.20225Z" fill="white"/>
<path d="M104.709 0.483939V18.5163H111.503C116.521 18.5163 121.719 15.7912 121.719 9.44925C121.719 2.62341 116.47 0.483939 111.297 0.483939H104.709ZM109.006 4.20225H111.194C114.231 4.20225 117.138 5.39957 117.138 9.44925C117.138 13.4734 114.231 14.7466 111.092 14.7466H109.006V4.20225Z" fill="white"/>
<path d="M39.8611 16.2751C39.8611 14.8743 38.6774 13.7791 37.2878 13.7791C35.8467 13.7791 34.6629 14.9252 34.6629 16.3006C34.6629 17.7014 35.8724 18.7711 37.2878 18.7711C38.6774 18.7711 39.8611 17.6759 39.8611 16.2751Z" fill="white"/>
<path d="M32.3727 18.5164V14.7979H23.9064V11.0538H31.472V7.56447H23.9064V4.17702H31.9094V0.483922H19.6604V18.5164H32.3727Z" fill="white"/>
<path d="M15.9033 18.5164V0.483922H11.5028V7.30978H4.4005V0.483922H0V18.5164H4.4005V10.9774H11.5028V18.5164H15.9033Z" fill="white"/>
<path d="M101.57 16.2751C101.57 14.8743 100.386 13.7791 98.9965 13.7791C97.5553 13.7791 96.3716 14.9252 96.3716 16.3006C96.3716 17.7014 97.5811 18.7711 98.9965 18.7711C100.386 18.7711 101.57 17.6759 101.57 16.2751Z" fill="white"/>
<path d="M96.9892 4.20246V0.483922H82.2955V4.20246H87.4421V18.5164H91.8426V4.20246H96.9892Z" fill="white"/>
<path d="M200 18.5164V0.483922H195.728L195.831 12.2509H195.754L188.446 0.483922H183.428V18.5164H187.699L187.596 6.72398H187.674L195.008 18.5164H200Z" fill="white"/>
<path d="M179.825 17.4212V7.87011H172.311V11.3849H175.785V14.6705C175.013 15.0016 174.061 15.1544 173.031 15.1544C169.455 15.1544 167.473 12.7858 167.473 9.47471C167.473 6.24007 169.738 3.84593 172.826 3.84593C174.601 3.84593 176.068 4.55907 176.917 5.52691L179.696 2.39415C178.178 0.942366 175.528 0 172.671 0C167.113 0 162.79 3.6931 162.79 9.47471C162.79 15.1544 166.984 18.9749 172.8 18.9749C175.605 18.9749 178.049 18.3381 179.825 17.4212Z" fill="white"/>
<path d="M159.882 18.5164V0.483922H155.455V18.5164H159.882Z" fill="white"/>
<path d="M152.676 2.24131C151.081 0.789554 148.765 0.0254588 146.706 0.0254588C143.309 0.0254588 139.655 1.68099 139.655 5.67972C139.655 8.93983 141.997 10.1114 144.313 10.8501C146.706 11.6141 148.096 12.0471 148.096 13.4225C148.096 14.8743 146.912 15.3837 145.574 15.3837C144.133 15.3837 142.512 14.5686 141.637 13.4734L138.755 16.377C140.35 18.0325 142.975 18.9749 145.574 18.9749C149.177 18.9749 152.548 17.1156 152.548 12.964C152.548 9.3728 149.357 8.32857 146.886 7.539C145.162 7.00416 144.081 6.62211 144.081 5.42503C144.081 3.99872 145.497 3.61668 146.629 3.61668C147.761 3.61668 149.125 4.22797 149.871 5.17033L152.676 2.24131Z" fill="white"/>
<path d="M137.339 18.5164V14.7979H128.873V11.0538H136.439V7.56447H128.873V4.17702H136.876V0.483922H124.627V18.5164H137.339Z" fill="white"/>
</svg>
