<svg width="40" height="30" viewBox="0 0 40 30" fill="none" xmlns="http://www.w3.org/2000/svg">
<path d="M14.9419 0L0 14.7064L14.9419 29.4122L20.0383 24.2364L16.1303 20.3898C15.961 20.2231 15.8451 20.0099 15.7974 19.7772C15.7497 19.5445 15.7723 19.3028 15.8623 19.083C15.9523 18.8632 16.1057 18.6751 16.303 18.5428C16.5002 18.4104 16.7324 18.3397 16.9699 18.3397H39.9995V11.0748H16.9688C16.7313 11.0748 16.4991 11.0041 16.3019 10.8717C16.1047 10.7394 15.9513 10.5513 15.8613 10.3315C15.7712 10.1117 15.7487 9.87011 15.7964 9.63743C15.8441 9.40475 15.96 9.19154 16.1293 9.02494L20.0383 5.17815L14.9419 0Z" fill="#2DCCD3"/>
</svg>
