<svg width="100" height="10" viewBox="0 0 100 10" fill="none" xmlns="http://www.w3.org/2000/svg">
<path d="M35.9883 0.000143982C33.1448 0.000143982 31.0347 1.9171 31.0347 4.96005C31.0347 7.96278 33.1448 10 35.9883 10C38.8447 10 40.9547 7.96278 40.9547 4.96005C40.9547 1.9171 38.8447 0.000143982 35.9883 0.000143982ZM35.9883 2.06428C37.5323 2.06428 38.6003 3.29782 38.6003 4.96005C38.6003 6.6759 37.5195 7.9088 35.9883 7.9088C34.4572 7.9088 33.3891 6.6759 33.3891 4.96005C33.3891 3.29782 34.4443 2.06428 35.9883 2.06428Z" fill="white"/>
<path d="M21.5 0.254705V9.74544H24.897C27.406 9.74544 30.0054 8.31116 30.0054 4.97329C30.0054 1.38074 27.3804 0.254705 24.7942 0.254705H21.5ZM23.6488 2.21171H24.7428C26.261 2.21171 27.7152 2.84188 27.7152 4.97329C27.7152 7.09129 26.2611 7.76137 24.6913 7.76137H23.6488V2.21171Z" fill="white"/>
<path d="M52.3545 0.254705V9.74544H55.7514C58.2605 9.74544 60.8593 8.31116 60.8593 4.97329C60.8593 1.38074 58.2348 0.254705 55.6486 0.254705H52.3545ZM54.5032 2.21171H55.5972C57.1154 2.21171 58.5691 2.84188 58.5691 4.97329C58.5691 7.09129 57.1155 7.76137 55.5458 7.76137H54.5032V2.21171Z" fill="white"/>
<path d="M19.9305 8.56584C19.9305 7.82856 19.3387 7.25215 18.6439 7.25215C17.9233 7.25215 17.3315 7.85536 17.3315 8.57925C17.3315 9.31652 17.9362 9.87954 18.6439 9.87954C19.3387 9.87954 19.9305 9.30312 19.9305 8.56584Z" fill="white"/>
<path d="M16.1863 9.74548V7.78835H11.9532V5.8178H15.736V3.9813H11.9532V2.19843H15.9547V0.254696H9.83018V9.74548H16.1863Z" fill="white"/>
<path d="M7.95167 9.74548V0.254696H5.75142V3.84725H2.20025V0.254696H0V9.74548H2.20025V5.77759H5.75142V9.74548H7.95167Z" fill="white"/>
<path d="M50.7849 8.56584C50.7849 7.82856 50.193 7.25215 49.4982 7.25215C48.7777 7.25215 48.1858 7.85536 48.1858 8.57925C48.1858 9.31652 48.7906 9.87954 49.4982 9.87954C50.193 9.87954 50.7849 9.30312 50.7849 8.56584Z" fill="white"/>
<path d="M48.4946 2.21182V0.254696H41.1477V2.21182H43.7211V9.74548H45.9213V2.21182H48.4946Z" fill="white"/>
<path d="M100 9.74548V0.254696H97.8641L97.9157 6.44783H97.877L94.2229 0.254696H91.7138V9.74548H93.8497L93.7982 3.53894H93.8368L97.5038 9.74548H100Z" fill="white"/>
<path d="M89.9125 9.16906V4.14217H86.1554V5.99207H87.8925V7.72132C87.5065 7.89558 87.0304 7.97602 86.5157 7.97602C84.7273 7.97602 83.7365 6.72935 83.7365 4.98669C83.7365 3.28425 84.8688 2.02417 86.4128 2.02417C87.3006 2.02417 88.034 2.39951 88.4586 2.9089L89.8482 1.26008C89.089 0.495982 87.7638 0 86.3356 0C83.5564 0 81.3948 1.94374 81.3948 4.98669C81.3948 7.97602 83.492 9.98678 86.3999 9.98678C87.8024 9.98678 89.0247 9.65165 89.9125 9.16906Z" fill="white"/>
<path d="M79.9408 9.74548V0.254696H77.7277V9.74548H79.9408Z" fill="white"/>
<path d="M76.3382 1.17964C75.5404 0.415555 74.3824 0.0133993 73.3531 0.0133993C71.6547 0.0133993 69.8276 0.884732 69.8276 2.98933C69.8276 4.70517 70.9985 5.32181 72.1565 5.71056C73.3531 6.11271 74.0479 6.34059 74.0479 7.06447C74.0479 7.82855 73.456 8.09666 72.7869 8.09666C72.0664 8.09666 71.2558 7.66771 70.8184 7.09128L69.3773 8.61945C70.175 9.49078 71.4874 9.98678 72.7869 9.98678C74.5883 9.98678 76.2738 9.0082 76.2738 6.82318C76.2738 4.93306 74.6783 4.38346 73.4432 3.9679C72.5811 3.6864 72.0407 3.48532 72.0407 2.85528C72.0407 2.10459 72.7483 1.90351 73.3145 1.90351C73.8806 1.90351 74.5626 2.22525 74.9357 2.72123L76.3382 1.17964Z" fill="white"/>
<path d="M68.6696 9.74548V7.78835H64.4364V5.8178H68.2193V3.9813H64.4364V2.19843H68.438V0.254696H62.3134V9.74548H68.6696Z" fill="white"/>
</svg>
